<svg xmlns="http://www.w3.org/2000/svg" viewBox="0 0 48 48"><defs><style>.cls-1{fill:none;}.cls-2{fill:#fff;}</style></defs><g id="Layer_2" data-name="Layer 2"><g id="Layer_1-2" data-name="Layer 1"><path class="cls-1" d="M0,0H48V48H0Z"/><path class="cls-2" d="M26.67,5.36H4.3A3.74,3.74,0,0,0,.57,9.09V38.91A3.74,3.74,0,0,0,4.3,42.64H26.67a3.74,3.74,0,0,0,3.73-3.73V9.09A3.74,3.74,0,0,0,26.67,5.36ZM4.3,9.09h9.32V24L9,21.2,4.3,24Z"/><path class="cls-2" d="M47.37,25h-6v6h-2V25h-6V23h6V17h2v6h6Z"/></g></g></svg>