<svg xmlns="http://www.w3.org/2000/svg" viewBox="0 0 48 48"><defs><style>.cls-1{fill:none;}.cls-2{fill:#fff;}</style></defs><g id="Layer_2" data-name="Layer 2"><g id="Layer_1-2" data-name="Layer 1"><path class="cls-1" d="M0,0H48V48H0Z"/><path class="cls-2" d="M47.35,25h-6v6h-2V25h-6V23h6V17h2v6h6Z"/><path class="cls-2" d="M28.43,11.84V36.16H4.11V11.84H28.43m1.91-3.47H2.2A1.56,1.56,0,0,0,.64,9.93V38.07A1.68,1.68,0,0,0,2.2,39.63H30.34a1.85,1.85,0,0,0,1.56-1.56V9.93A1.68,1.68,0,0,0,30.34,8.37Zm-15.81,7H25v3.47H14.53Zm0,6.94H25v3.48H14.53Zm0,7H25v3.47H14.53ZM7.59,15.32h3.47v3.47H7.59Zm0,6.94h3.47v3.48H7.59Zm0,7h3.47v3.47H7.59Z"/></g></g></svg>