<svg xmlns="http://www.w3.org/2000/svg" viewBox="0 0 48 48"><defs><style>.cls-1{fill:none;}.cls-2,.cls-3{fill:#fff;}.cls-2{fill-rule:evenodd;}</style></defs><g id="Layer_2" data-name="Layer 2"><g id="Layer_1-2" data-name="Layer 1"><rect class="cls-1" width="48" height="48"/><path class="cls-2" d="M17.25,19.83h8.33V16.5H17.25Zm0,11.67h8.33V28.17H17.25Zm10,7.5H3.92A3.34,3.34,0,0,1,.59,35.66V12.34A3.34,3.34,0,0,1,3.92,9H27.25a3.34,3.34,0,0,1,3.33,3.34V35.66A3.34,3.34,0,0,1,27.25,39ZM5.59,22.33h8.33V14H5.59Zm1.66-6.66h5v5h-5ZM5.59,34h8.33V25.67H5.59Zm1.66-6.67h5v5h-5Z"/><path class="cls-3" d="M47.34,25h-6v6h-2V25h-6V23h6V17h2v6h6Z"/></g></g></svg>