<svg xmlns="http://www.w3.org/2000/svg" viewBox="0 0 48 48"><defs><style>.cls-1{fill:none;}.cls-2{fill:#fff;}</style></defs><g id="Layer_2" data-name="Layer 2"><g id="Layer_1-2" data-name="Layer 1"><rect class="cls-1" width="48" height="48"/><path class="cls-2" d="M7.14,24H3.86v3.28H7.14Zm8.21-11.5h3.29V9.22H15.35ZM3,11.68v4.93H8V11.68ZM3,31.39v4.93H8V31.39ZM22.75,11.68v4.93h4.92V11.68Zm-5.75,9H7.14V24h3.29v3.28h3.28V24H17Zm3.28,18.06H17V35.5h3.28ZM17,27.28H13.71V35.5H17ZM30.14,24H26.85v6.57h3.29Zm-3.29-3.28H23.57V24h3.28Zm-23,0H.57V24H3.86Zm6.57-1.65H.57V9.22h9.86Zm0,19.71H.57V28.93h9.86ZM30.14,19.07H20.28V9.22h9.86ZM26.85,35.5V30.57H20.28v3.28h3.29v4.93h6.57V35.5ZM23.57,24H17v3.28h6.57Zm-4.93-4.93V15.79H15.35V12.5H12.07v6.57ZM6.73,12.91H4.27v2.47H6.73Zm0,19.71H4.27v2.47H6.73ZM26.44,12.91H24v2.47h2.46Z"/><path class="cls-2" d="M47.39,25h-6v6h-2V25h-6V23h6V17h2v6h6Z"/></g></g></svg>