<svg xmlns="http://www.w3.org/2000/svg" viewBox="0 0 48 48"><defs><style>.cls-1{fill:none;}.cls-2{fill:#fff;}</style></defs><g id="Layer_2" data-name="Layer 2"><g id="Layer_1-2" data-name="Layer 1"><rect class="cls-1" width="48" height="48"/><path class="cls-2" d="M30,42H26V38h4ZM26,28H22V38h4Zm16-4H38v8h4Zm-4-4H34v4h4ZM14,24H10v4h4Zm-4-4H6v4h4ZM24,10h4V6H24ZM9,9v6h6V9Zm9,9H6V6H18ZM9,33v6h6V33Zm9,9H6V30H18ZM33,9v6h6V9Zm9,9H30V6H42ZM38,38V32H30v4h4v6h8V38ZM34,24H26v4h8Zm-8-4H14v4h4v4h4V24h4Zm2-2V14H24V10H20v8ZM13.5,10.5h-3v3h3Zm0,24h-3v3h3Zm24-24h-3v3h3Z"/></g></g></svg>