<svg xmlns="http://www.w3.org/2000/svg" viewBox="0 0 48 48"><defs><style>.cls-1,.cls-2{fill:none;}.cls-2{stroke:#fff;stroke-miterlimit:10;stroke-width:0.76px;}</style></defs><g id="Layer_2" data-name="Layer 2"><g id="Layer_1-2" data-name="Layer 1"><path class="cls-1" d="M0,0H48V48H0Z"/><path class="cls-2" d="M23.62,33.69V36a28.09,28.09,0,0,0-9.75-2,31.57,31.57,0,0,0-7.29.51c0-4.27,0-13.68,0-20.52,0,0,1.18-.21,2.62-.43"/><path class="cls-2" d="M9.09,12.64a49.38,49.38,0,0,1,6.07-.88c6.68.06,8.46,3.89,8.46,3.89V33.46a21.84,21.84,0,0,0-8.29-1.9,24.16,24.16,0,0,0-6.2.47C9.13,28,9.09,19.1,9.09,12.64Z"/><path class="cls-2" d="M38.84,13.57c1.44.22,2.62.43,2.62.43,0,6.84,0,16.25,0,20.52A31.57,31.57,0,0,0,34.13,34a28.09,28.09,0,0,0-9.75,2V33.69"/><path class="cls-2" d="M38.91,12.64a49.38,49.38,0,0,0-6.07-.88c-6.68.06-8.46,3.89-8.46,3.89V33.46a21.84,21.84,0,0,1,8.29-1.9,24.16,24.16,0,0,1,6.2.47C38.87,28,38.91,19.1,38.91,12.64Z"/></g></g></svg>