<svg xmlns="http://www.w3.org/2000/svg" viewBox="0 0 48 48"><defs><style>.cls-1,.cls-3{fill:none;}.cls-2{fill:#fff;}.cls-3{stroke:#fff;stroke-miterlimit:10;stroke-width:2.25px;}</style></defs><g id="Layer_2" data-name="Layer 2"><g id="Layer_1-2" data-name="Layer 1"><path class="cls-1" d="M0,0H48V48H0Z"/><path class="cls-2" d="M28.52,6H9.22A3.24,3.24,0,0,0,6,9.25v29.5A3.23,3.23,0,0,0,9.22,42h19.3a3.23,3.23,0,0,0,3.22-3.23v-2H28.45v1.91H9.29V9.32H28.45v1.9h3.29v-2A3.24,3.24,0,0,0,28.52,6Z"/><line class="cls-3" x1="21.22" y1="24" x2="40.37" y2="24"/><polygon class="cls-2" points="35.37 30.16 34.34 29.06 39.79 24 34.34 18.94 35.37 17.84 42 24 35.37 30.16"/></g></g></svg>